<svg width="132" height="10" viewBox="0 0 132 10" fill="none" xmlns="http://www.w3.org/2000/svg">
<path d="M0 0H23.935C23.94 0.7 23.94 1.4 23.93 2.1C16.705 2.225 9.47 1.975 2.25 2.23C9.49 3.37 16.69 4.775 23.91 6.055C23.97 7.37 23.92 8.685 23.935 10H0V7.875C7.21 7.815 14.43 8 21.635 7.78C14.4 6.645 7.22 5.195 0 3.97V0Z" fill="currentColor"/>
<path d="M35.945 0H38.1C38.105 0.71 38.075 1.42 38.12 2.13C44.705 3.295 51.285 4.5 57.87 5.665C57.88 3.78 57.87 1.89 57.875 0H59.98C59.985 3.335 59.985 6.665 59.985 10H57.875C57.88 9.305 57.875 8.605 57.87 7.91C51.29 6.685 44.7 5.5 38.105 4.35C38.095 6.235 38.105 8.115 38.1 10H35.945C35.945 6.665 35.945 3.335 35.945 0Z" fill="currentColor"/>
<path d="M71.995 0H96.045C96.045 3.335 96.045 6.665 96.045 10H71.995C71.995 6.665 71.995 3.335 71.995 0ZM74.13 2.125C74.125 4.04 74.12 5.955 74.13 7.87C80.71 7.875 87.295 7.88 93.875 7.87C93.89 5.955 93.88 4.04 93.88 2.13C87.295 2.12 80.71 2.125 74.13 2.125Z" fill="currentColor"/>
<path d="M108.055 0H132V2.125C124.79 2.19 117.565 1.995 110.365 2.23C117.6 3.35 124.78 4.815 132 6.03V10H108.055C108.055 6.665 108.055 3.335 108.055 0ZM110.155 7.875C116.645 7.855 123.135 7.91 129.625 7.845C123.155 6.63 116.66 5.52 110.18 4.33C110.12 5.51 110.175 6.695 110.155 7.875Z" fill="currentColor"/>
</svg>
